<svg xmlns="http://www.w3.org/2000/svg" width="8in" height="8in" viewBox="0 0 576 576"><path fill="#231f20" d="M287.2 61.8a103.7 103.7 0 0 1 32.1-3.1 111.4 111.4 0 0 1 32.4 7.1l7.7 3.2 3.8 1.8 3.7 1.9 3.7 2.1c1.2.7 2.5 1.3 3.6 2.1l3.6 2.2 3.4 2.3a187 187 0 0 1 25.5 21.3c15.7 15.5 28.8 32.9 40.5 50.8 5.8 9 11.2 18.1 16.5 27.2s10.2 18.4 15.2 27.5l-14-8.2a15.5 15.5 0 0 0 4.5-.7 32 32 0 0 0 5.7-2.5c2.2-1.1 4.7-2.6 7.6-4.2a97.5 97.5 0 0 1 10.2-5l2.9-1.1h3a28.7 28.7 0 0 1 11.5 2.5 30.3 30.3 0 0 1 8.9 5.8 28.8 28.8 0 0 1 6.8 9.4l1.2 2.9.8 3.2c.2 1.1.3 2.2.4 3.3s0 2.1 0 3.2-.1 1.1-.1 1.6l-.3 1.5a15.9 15.9 0 0 1-.5 2.4l-.7 2.9c-.2 1-.6 2-.8 3s-.6 2-1 3a113.6 113.6 0 0 1-4.4 11.5 148.2 148.2 0 0 1-11.7 21.1 190.6 190.6 0 0 1-14.3 18.6l-.5.5-.3.3a60.7 60.7 0 0 1-9.1 7.3 66.5 66.5 0 0 1-9.2 5.2l-8.2 4-7.1 3.4c-2.1 1.2-4.2 2.4-5.9 3.6l-1.4 1-1.2 1a19 19 0 0 0-2.1 1.9 20.5 20.5 0 0 0-3.3 4.1 23.9 23.9 0 0 0-1.2 2.2 23.4 23.4 0 0 0-.9 2.4 30.5 30.5 0 0 0-1.2 12q.3 3.4.9 7.2c.5 2.5 1 5 1.7 7.6 1.3 5.1 2.9 10.5 4.6 16s3.5 11.4 5 17.8l.5 1.8v1.4c0 .9.1 2 .2 3.2l.4 4.6a43.1 43.1 0 0 1 .1 6.4v1c0 .3-.1.7-.1 1.1s-.1.7-.2 1.1l-.2 1.2a26.2 26.2 0 0 1-1.9 5.3l-.5 1.1-.7.9c-13 16.6-25.8 33.2-38 50.2-3.1 4.3-6.1 8.5-9 12.8l-4.4 6.5-4.5 6.6-2.3 3.5-2.6 3.5-4.9 6.4c-3.4 4.2-6.8 8.5-10.4 12.6-7.3 8.3-15.2 16.4-24.5 23.3a94.6 94.6 0 0 1-15 9 72.7 72.7 0 0 1-17.1 5.5 66.5 66.5 0 0 1-17.8.7 33.2 33.2 0 0 1-4.4-.6l-4.2-.8-2.1-.5-2.3-.5a31.4 31.4 0 0 1-4.6-1.8 32.7 32.7 0 0 1-8.1-5.4 48.3 48.3 0 0 1-6.2-6.7 108.4 108.4 0 0 1-8.6-14.3l-.3-.5h-.1c-2.4-6.7-5-13.3-7.6-20s-5.3-13.3-7.9-20-5-13.6-7.2-20.5l-1.6-5.1-1.5-5.2-1.3-5.3-1.3-5.4 1.2-.3 1.8 5.1 2 4.9 2 5 2.1 4.9c2.9 6.5 6.1 12.9 9.3 19.3s6.5 12.7 9.8 19.1 6.5 12.9 9.6 19.4l-.4-.6a120.5 120.5 0 0 0 9 12.2 35.2 35.2 0 0 0 4.9 4.6 20.2 20.2 0 0 0 5.4 2.9 12.9 12.9 0 0 0 2.8.8l1.6.3 1.8.3 3.6.4a21.7 21.7 0 0 0 3.6.1 52.4 52.4 0 0 0 13.7-1.5 59.3 59.3 0 0 0 12.8-5.2 77.1 77.1 0 0 0 11.7-8.2 140.1 140.1 0 0 0 20.1-21.8c3.1-4 6.1-8.2 9-12.5l4.4-6.4 2-3a35.4 35.4 0 0 0 1.9-3.3l4.1-6.8 4.1-6.9 8.6-13.6c5.9-9 11.8-17.9 17.9-26.7s12.3-17.5 18.5-26.1l-1.2 2c-.6 1-.5 1.3-.5.8a23.2 23.2 0 0 0-.3-2.7 93.9 93.9 0 0 1-1-10.4l.4 3.2c-1.3-4.9-3.2-10.2-5.1-15.7s-3.9-11.2-5.6-17.3c-.9-3-1.7-6.1-2.4-9.4s-1.2-6.6-1.6-10.1a79.9 79.9 0 0 1-.2-11 53 53 0 0 1 1.9-11.6 50.1 50.1 0 0 1 12.1-21.1 52.5 52.5 0 0 1 4.2-4l2.2-1.8 2.2-1.6a87.4 87.4 0 0 1 8.8-5.7l8.5-4.4 7.4-3.8a53.1 53.1 0 0 0 6-3.5 42.8 42.8 0 0 0 4.4-3.7l-.8.8a166.9 166.9 0 0 0 11.7-15.6 122.1 122.1 0 0 0 9-16.6 88.2 88.2 0 0 0 3.1-8.6c.3-.7.4-1.4.7-2.1a17.4 17.4 0 0 0 .5-2.2l.6-2.3c.1-.6 0-.3 0-.3v.4a4 4 0 0 0 .4 2.2 2.2 2.2 0 0 0 .4.8h1.1l5.9-1.1a42.2 42.2 0 0 0-6.4 3.2c-2.5 1.4-5.2 3.1-8.5 4.8a65.1 65.1 0 0 1-11.2 4.7 47.8 47.8 0 0 1-13.7 2.1h-9.4l-4.6-8.3c-5-9.1-10-18.1-15.1-27s-10.1-17.7-15.4-26.3-10.5-17.1-16.2-25.4-11.4-16.2-17.6-23.8c-12.4-15.1-26.3-28.9-42.8-39.2a122.3 122.3 0 0 0-26.6-12.5 144.3 144.3 0 0 0-29.9-6.3zM212 51.6s-35.1-15.3-54.4-9.6-37.3 35.9-32.5 57.3 67.3 4.7 84.5-2.1 2.4-45.6 2.4-45.6z"/><path fill="#231f20" d="M252.7 92.4s31.8-21.6 60.9 7.8c5 5.1 5.1 12.7 3.6 19.3a68.4 68.4 0 0 1-3.8 11.6c-.8 1.9-1.7 3.7-2.6 5.5s-2.1 3.4-2 5.4 1.1.1 1.5-.2c3.5-2.7 6.3-6.1 9.5-9.1l2-1.7c.1-.1 1.6-1.1 1.6-1.3 1.9-1.3 3.9-2.8 6.4-2.6 7.1.6 21.7 8.9 29 16.9 4.5 4.8 4 13.1 3.4 19.2-1 9.8-2.4 18.1-10.6 24.5-3.5 2.7-7.1 6.9-.1 6.5 3.1-.3 6.4-.6 9.3.4 7.1 2.4 13.4 8.6 14.6 16.2s-3.7 16.4-7 23.5c-2.4 5.2-8.3 4.1-11.5 7.5 3.7 4.5 8.7 7.3 11.3 12.7a18.9 18.9 0 0 1 2 8.4c0 3.9-1.9 6.5-2.8 10.1-1.6 6.9-46.4 25-51.6 27.3s-67.8 72.2-69.5 75.9-121.5-38.8-121.5-38.8l30.3-212.6z"/><path fill="#231f20" d="M116 394.3a32 32 0 0 1-16.1-4.2c-18.3-10.2-23-36.5-10.6-58.5 8.7-15.5 24.2-25.5 39.5-25.5a32 32 0 0 1 16.1 4.2c9 5 15 14 16.9 25.3s-.4 22.7-6.3 33.3c-8.7 15.4-24.2 25.4-39.5 25.4z"/><path fill="#fff" d="M128.8 310.6a28.5 28.5 0 0 1 13.9 3.6c16.1 9.1 20.1 32.5 8.9 52.4-8.2 14.6-22.3 23.2-35.6 23.2a28.5 28.5 0 0 1-13.9-3.6c-16.1-9.1-20.1-32.5-8.9-52.4 8.2-14.6 22.3-23.2 35.6-23.2m0-9c-16.9 0-34 10.9-43.4 27.7a55.5 55.5 0 0 0-6.9 36.3c2.2 12.6 9 22.7 19.2 28.5a37.2 37.2 0 0 0 18.3 4.7c16.9 0 33.9-10.9 43.4-27.7a55.2 55.2 0 0 0 6.9-36.2c-2.2-12.7-9-22.8-19.2-28.6a37.5 37.5 0 0 0-18.3-4.7z"/><path fill="#231f20" d="M213.6 449.2a35.6 35.6 0 0 1-17.9-4.6c-20.4-11.5-25.7-41-11.7-65.9 9.9-17.5 27.3-28.8 44.5-28.8a35.7 35.7 0 0 1 17.9 4.7c20.4 11.4 25.6 41 11.7 65.8-9.9 17.5-27.3 28.8-44.5 28.8z"/><path fill="#fff" d="M228.5 354.5a31.1 31.1 0 0 1 15.7 4c18.3 10.3 22.7 37 9.9 59.7-9.4 16.7-25.4 26.5-40.5 26.5a32.2 32.2 0 0 1-15.7-4c-18.3-10.3-22.7-37.1-9.9-59.8 9.3-16.6 25.4-26.4 40.5-26.4m0-9.1c-18.8 0-37.8 12.2-48.4 31.1-7.2 12.8-9.9 27.1-7.7 40.4s9.8 25.3 21.1 31.6a39.9 39.9 0 0 0 20.1 5.2c18.8 0 37.8-12.2 48.4-31.1 7.2-12.7 9.9-27.1 7.7-40.4s-9.8-25.2-21.1-31.6a40.9 40.9 0 0 0-20.1-5.2z"/><path fill="#231f20" d="M163.7 423.4a37.6 37.6 0 0 1-19-4.9c-21.1-11.9-26.9-41.7-12.9-66.6 9.7-17.2 27.2-28.4 44.6-28.4a38 38 0 0 1 19 5c21.1 11.8 26.9 41.7 12.9 66.5-9.7 17.3-27.2 28.4-44.6 28.4z"/><path fill="#fff" d="M176.4 328.1a34.4 34.4 0 0 1 16.8 4.3c18.9 10.7 23.9 37.7 11.2 60.4-9.3 16.5-25.4 26.1-40.7 26.1a34.2 34.2 0 0 1-16.8-4.3c-19-10.7-24-37.8-11.2-60.5 9.3-16.4 25.3-26 40.7-26m0-9.1a51.9 51.9 0 0 0-27.5 8.3 63.1 63.1 0 0 0-21.1 22.4c-7.2 12.8-9.8 27.3-7.3 40.8s10.4 25.4 21.9 31.9a42.5 42.5 0 0 0 21.3 5.5 51.7 51.7 0 0 0 27.4-8.2 63.1 63.1 0 0 0 21.1-22.4c7.2-12.9 9.8-27.4 7.4-40.8s-10.4-25.5-22-32a43.2 43.2 0 0 0-21.2-5.5z"/><path fill="#231f20" d="M197.3 152.6s25.6-33.4-8.2-57.1c-20.8-14.6-87.4.5-87.4.5l-33.9 33.6s-15.8 2.8-20.2 6.5c-2.3 1.9-4.4 14.8-3.7 19 1 5.9 17 27.1 17 27.1s-22.1 5.9-21.9 16.2S56.5 223 58.4 224 36 239.4 41.6 254.9s42.2 20.7 43.9 21.6 15.9 32.4 26 35.5c4.3 1.4 9.6.7 14 .6 8.2-.3 16.3-1 24.5-1.8s18.1-2.1 27.1-3.5c4.6-.7 9.2-1.5 13.7-2.5a76.6 76.6 0 0 0 11.4-3 10.7 10.7 0 0 0 4.4-2.8 14.2 14.2 0 0 0 2.3-4.6c.7-2.3 1.4-4.6 1.9-6.8 1.5-6.6 1.9-13.9-1.9-19.8s-10.2-8.7-16.6-10.3c-9-2.4-16.3-3.7-16.3-3.7h3.1l7.8-.5c3.5-.2 6.9-.6 10.4-1s7.3-1.1 10.9-1.8a51.1 51.1 0 0 0 9.4-2.9 14.8 14.8 0 0 0 3.5-1.9 8 8 0 0 0 2.9-3.4 33.7 33.7 0 0 0 2.9-13.7 21 21 0 0 0-2.8-10.4 23 23 0 0 0-9.8-9 25.3 25.3 0 0 0-3.7-1.8c14.5-2.2 36.5-28-13.3-54.8z"/><path fill="#fff" d="M195.1 153.1a6.2 6.2 0 0 1 .1-1.3l.3-.5h.2v-.3l.4-.4.6-1 1.2-2c.7-1.3 1.5-2.7 2.1-4.1a44.2 44.2 0 0 0 3.1-8.6 34 34 0 0 0-.1-17.9 31.5 31.5 0 0 0-3.8-8.1 43 43 0 0 0-5.9-6.9l-1.8-1.5-.8-.7-1-.7-1.7-1.6-1.8-1.2a34.3 34.3 0 0 0-8.5-3 56.8 56.8 0 0 0-9.2-1.4c-3.1-.3-6.3-.4-9.4-.5-6.4 0-12.7.3-19.1.9a326.1 326.1 0 0 0-37.8 5.9l1.1-.6-33.9 33.6-.5.5-.7.2c-2.9.5-5.9 1.1-8.8 1.9a44 44 0 0 0-8.2 2.8l-.9.4-.8.5-.3.2h-.3c0 .1-.1.2-.1.4a16.9 16.9 0 0 0-1.3 3.8 64.2 64.2 0 0 0-1.4 8.6v3.5a1.9 1.9 0 0 0 .1.8 2.4 2.4 0 0 1 .2.8l.4.9a16.3 16.3 0 0 0 .9 1.9c1.4 2.6 3 5.1 4.6 7.7 3.3 5 6.8 9.9 10.4 14.8l2 2.6-3.2.9a62 62 0 0 0-10.1 3.9 25.9 25.9 0 0 0-4.6 2.6 15.3 15.3 0 0 0-3.8 3.3 6.9 6.9 0 0 0-1.7 3.7v1.1c.1.4.1.8.2 1.2s.4 1.5.7 2.3a29.4 29.4 0 0 0 5.5 8.8 62.2 62.2 0 0 0 7.7 7.7l2.2 1.6 1 .8.6.4h.4a2.7 2.7 0 0 1 .8.7 2.6 2.6 0 0 1 .4 1v.9a2.4 2.4 0 0 1-.3.7v.3h-.1l-.2.3-.6.7-1.2 1.1-2.1 1.9a69.8 69.8 0 0 0-7.6 7.8 27.4 27.4 0 0 0-5 8.9 13.1 13.1 0 0 0-.5 4.8 18.9 18.9 0 0 0 .5 2.3c.1.4.3.7.4 1.1l.2.5.3.5a21.4 21.4 0 0 0 7.3 7 54.3 54.3 0 0 0 9.7 4.7 92.3 92.3 0 0 0 10.4 3.9c3.6 1 7.2 1.8 10.8 2.6l2.9.7h.8l.2.2.6.4.2.2h.1v.2l.3.4.9 1.3 2.8 5a171.2 171.2 0 0 0 11.5 19 47.8 47.8 0 0 0 3.4 4.2 20.1 20.1 0 0 0 3.7 3.5 11.8 11.8 0 0 0 1.9 1l2.4.5a45.2 45.2 0 0 0 5.3.2l11.2-.6c3.7-.2 7.4-.4 11.1-.8 7.5-.6 14.9-1.4 22.4-2.4l11.1-1.6 11-2c3.6-.6 7.4-1.4 10.8-2.3a24.5 24.5 0 0 0 5-1.7 6.5 6.5 0 0 0 3.1-2.8 14.7 14.7 0 0 0 1-2.2 8.4 8.4 0 0 1 .4-1.2l.3-1.4c.5-1.7 1.1-3.5 1.5-5.3a30.6 30.6 0 0 0 .6-10.4 15.7 15.7 0 0 0-3.9-8.9 21.8 21.8 0 0 0-8.5-5.6 42 42 0 0 0-5-1.7l-5.5-1.4-10.8-2-20.4-3.8 20.8-.7h5.7l5.8-.4 5.8-.6 5.7-.6a105.2 105.2 0 0 0 11.2-2.1 46.8 46.8 0 0 0 5.3-1.7 15.4 15.4 0 0 0 4.6-2.4 4 4 0 0 0 1.4-1.5 15 15 0 0 0 1.1-2.2 31.8 31.8 0 0 0 1.4-5.3 24.2 24.2 0 0 0 .6-5.4 22.4 22.4 0 0 0-.6-5.2 16.5 16.5 0 0 0-5.1-8.8 28.8 28.8 0 0 0-4.3-3.3 13.4 13.4 0 0 0-2.4-1.2l-2.5-1.2-6.7-3.2 7.3-1.1a19 19 0 0 0 7.7-3.4 31.1 31.1 0 0 0 3.3-2.9 28 28 0 0 0 2.5-3.5 17 17 0 0 0 2.1-8.2 20.2 20.2 0 0 0-2-8.3 34.3 34.3 0 0 0-5.1-7.5 58.1 58.1 0 0 0-6.7-6.4l-3.7-2.8-4-2.7-4.1-2.5a34.8 34.8 0 0 1-5.2-4zm4.4-1a12.9 12.9 0 0 1 3.3 1l4.1 2.5 4.1 2.8c1.3 1 2.7 1.9 3.9 3a67.8 67.8 0 0 1 7.3 6.9 40.8 40.8 0 0 1 5.7 8.5 24.4 24.4 0 0 1 2.5 10.3 20.2 20.2 0 0 1-2.7 10.4 21.3 21.3 0 0 1-3.1 4.3 21.7 21.7 0 0 1-3.9 3.5 22.2 22.2 0 0 1-9.8 4.2l.5-4.3 2.8 1.3a24.9 24.9 0 0 1 2.8 1.5 26.4 26.4 0 0 1 5 3.8 27.4 27.4 0 0 1 4 5 22.8 22.8 0 0 1 2.4 6.1 26.5 26.5 0 0 1 .7 6.3 31.8 31.8 0 0 1-.6 6.2 45 45 0 0 1-1.7 6l-.6 1.4a11.9 11.9 0 0 1-.8 1.6 10.9 10.9 0 0 1-2.5 2.7 21.4 21.4 0 0 1-5.8 3 39.3 39.3 0 0 1-5.8 1.9c-3.9.9-7.8 1.6-11.7 2.2-1.9.3-3.9.4-5.9.6l-5.8.6-5.9.4h-5.9l.3-4.4 11.2 2.3 5.5 1.4a36.9 36.9 0 0 1 5.6 1.9 27.3 27.3 0 0 1 10.2 6.8 17.2 17.2 0 0 1 3.4 5.3 21.3 21.3 0 0 1 1.6 6 34.3 34.3 0 0 1-.7 12c-.4 1.9-1 3.7-1.5 5.6l-.4 1.4a10.3 10.3 0 0 1-.4 1.4 20.2 20.2 0 0 1-1.4 3 9 9 0 0 1-2.2 2.7 13.2 13.2 0 0 1-2.9 1.9 32.3 32.3 0 0 1-5.7 2l-5.6 1.3-5.5 1.1-11.2 2-11.2 1.6c-7.5 1-15 1.8-22.6 2.5l-11.3.8-11.3.5a30.6 30.6 0 0 1-6-.2 11.6 11.6 0 0 1-3.1-.7 11.2 11.2 0 0 1-3.1-1.5 26.7 26.7 0 0 1-4.6-4.2c-1.3-1.5-2.5-3-3.7-4.6a177.4 177.4 0 0 1-11.8-19.5c-1-1.6-1.9-3.3-2.8-4.8l-.6-1.1-.2-.2.3.2h.1l-2.7-.6c-3.6-.8-7.4-1.7-11-2.7a108.7 108.7 0 0 1-11-3.6 63.5 63.5 0 0 1-10.5-5.1c-3.3-2.2-6.6-4.8-8.8-8.6a16.6 16.6 0 0 1-1.4-12.7 32.2 32.2 0 0 1 5.9-10.3 64.4 64.4 0 0 1 8.2-8.3l2-1.9.9-.9.3-.3a1 1 0 0 0-.1.4 1.7 1.7 0 0 0-.1.7 6.3 6.3 0 0 0 .4.9l.6.6-.2-.2-.4-.2-.6-.4-1.2-.9-2.3-1.8a64.3 64.3 0 0 1-8.3-8.2 34.3 34.3 0 0 1-6.3-10.2 17.1 17.1 0 0 1-1.1-6.5 10.4 10.4 0 0 1 2.7-6.3 26.3 26.3 0 0 1 4.7-4.2 38.1 38.1 0 0 1 5.2-2.9 60.5 60.5 0 0 1 11-4.1l-1.3 3.5c-3.6-4.9-7.2-9.9-10.6-15.1-1.7-2.6-3.3-5.2-4.8-8l-1.1-2.2-.4-1.2a7.4 7.4 0 0 1-.4-1.4 3.6 3.6 0 0 1-.2-1.4c0-.5-.1-.9-.1-1.3s.1-1.7.1-2.5a59.4 59.4 0 0 1 1.5-9.4 27 27 0 0 1 1.6-4.8l.4-.6a3.5 3.5 0 0 1 .5-.8l.4-.4.2-.2h.1l.6-.4 1.2-.7 1.1-.6a57.6 57.6 0 0 1 9.1-3.1c3-.8 6-1.4 9.1-2l-1.2.6 33.9-33.6.5-.5h.6a356.3 356.3 0 0 1 38.4-6q9.8-.9 19.5-.9c3.3.1 6.5.1 9.8.5a64.4 64.4 0 0 1 9.8 1.5 36.9 36.9 0 0 1 9.6 3.5l2.3 1.4 2 1.5 1 .7 1 .9 1.9 1.6a44.9 44.9 0 0 1 6.5 7.8 35.4 35.4 0 0 1 4.4 9.2 38.9 38.9 0 0 1 .2 20.3 53.8 53.8 0 0 1-3.4 9.5c-.7 1.5-1.5 3-2.3 4.4s-.9 1.4-1.3 2.2l-.7 1-.4.5-.2.3h-.1c.1 0 0 .2.1 0s.2-.3.2-.5a2.4 2.4 0 0 0 0-1.2z"/><path fill="#231f20" d="M88.5 167.6l29.1-19.4 4.5.4 11.6.8 15.9 1.1 17.4 1.1c8.2.4 16.4.8 24.7.9h4.4a7.8 7.8 0 0 0 3.7-.6"/><path fill="#fff" d="M88.5 167.6c2.3-1.8 4.6-3.6 7-5.3l7-5.3 7.1-5.1 7-5.1.5-.3h.6l10.3.5 10.3.5 20.5 1.1 20.6 1.2 10.2.6 5.1.2a18.1 18.1 0 0 1 2.5.2 21.7 21.7 0 0 1 2.6 1.1 3.1 3.1 0 0 1-2.4 2.2 13.1 13.1 0 0 1-2.7.3h-15.5c-6.9-.1-13.8-.5-20.7-1s-13.7-1-20.5-1.6l-20.6-2 1.1-.3-7.4 4.6-7.5 4.5-7.5 4.5z"/><path fill="#231f20" d="M94.9 209.8l22.8-9.7 2.5.6 6.9 1.4 10.2 1.9 12.6 2c4.7.6 9.4 1.2 14 1.6s9.7.8 14.5 1 6.9.2 10.4 0l10.5-.5 10.3-.4a13.7 13.7 0 0 0 6-1.2"/><path fill="#fff" d="M94.9 209.8l11.1-5.5 11.2-5.4h.8l6.1 1 6 1 6.1 1 6.1.8c4 .6 8.1 1.2 12.2 1.5l6.1.7 3 .3 3.1.2 12.1.9 6.1.2c2 .1 4 0 6.1-.1l12.4-.3c2-.1 4.1-.1 6.1-.3a14 14 0 0 1 2.9 0 27.1 27.1 0 0 1 3.2.7 4.7 4.7 0 0 1-2.6 2.6 9.5 9.5 0 0 1-3.3.5l-6.2.2-12.3.7c-2 .2-4.1.4-6.2.4h-6.3l-12.4-.8a62 62 0 0 1-6.2-.6l-6.2-.8c-4.1-.5-8.2-1.3-12.2-2-8.2-1.4-16.2-3.3-24.3-5.4h.8l-11.6 4.3z"/><path fill="#231f20" d="M112.1 259.7l14.7-4.2 65.7-2.4"/><path fill="#fff" d="M112.1 259.7l7.1-2.8 7.2-2.6h.3l8.2-.8 8.2-.7 8.2-.6 8.2-.5c5.5-.3 11-.4 16.5-.4s10.9-.2 16.5 1.9c-5.4 2.4-10.9 2.4-16.3 3s-11 .8-16.5.9H135l-8.2-.2h.3l-7.5 1.6z"/><path fill="#fff" stroke="#231f20" stroke-miterlimit="10" stroke-width=".91" d="M186.4 198.9l.7-36.8s20.8 1.7 24.5 12 3.1 21.5-3.1 24.3-22.1.5-22.1.5z"/><path fill="#fff" stroke="#231f20" stroke-miterlimit="10" stroke-width=".96" d="M170.7 142l.6-41.7s20.8 2 24.5 13.7 3.2 24.3-3 27.6-22.1.4-22.1.4z"/><path fill="#fff" stroke="#231f20" stroke-miterlimit="10" stroke-width=".69" d="M195.6 241.6l.6-27.3s16.5 1.3 19.4 8.9 2.5 15.9-2.4 18-17.6.4-17.6.4z"/><path fill="#fff" stroke="#231f20" stroke-miterlimit="10" stroke-width=".62" d="M182.8 291.9l.5-25.2s14.3 1.2 16.8 8.2 2.2 14.7-2.1 16.7-15.2.3-15.2.3z"/><path fill="#231f20" stroke="#fff" stroke-miterlimit="10" stroke-width="4.52" d="M193.9 129.9c-22.2-7.9-15.6-32.1 2.8-64.8S230 8.7 242.8 9.5s38.9 5.4 42.8 27.3-33.1 81.6-37.2 86-21.3 19-54.5 7.1z"/><path fill="#fff" stroke="#231f20" stroke-miterlimit="10" stroke-width="1.21" d="M203.7 82.4l46.7 15.8s-10.6 25.9-25.3 26.4-28.6-4.6-29.8-13.7 8.4-28.5 8.4-28.5z"/><path fill="#231f20" d="M382.2 539.4l14.5-21.4 10.8 7.4-6.5 9.6 4 2.8 5.9-8.8 10 6.8-5.9 8.7 4.2 2.9 7-10.4 11.1 7.4-15 22.2zm69.4-16.1l-8.2 12.1-45.1-19.7 8.5-12.5 25.2 13.2.2-.3-21.4-18.8 7.4-11 25.6 12.7h.1l-21.6-18.6 8-11.9 35 34.7-8.2 12.1-25-11.1v.2zm23.6-46.7l-4.7 6.9 4.8 4.8-8.3 12.3-33.7-36.6 10.4-15.2 46.5 17.6-8.7 12.9zm-13.3-.9l2.8-4.1-14.3-6.9-.2.2zm20.3-35.1v.2l17.4 11.8-8.3 12.2-40-27.1 8.3-12.2 15.7 10.7.2-.3-12-16.3 9.2-13.5 12.6 20.5 27.8 6.1-9.5 14.1zm39.8-33.1l-4.7 6.9 4.8 4.8-8.3 12.3-33.6-36.6 10.3-15.2 46.5 17.6-8.7 12.9zm-13.3-.9l2.8-4.1-14.3-6.9v.2z"/></svg>