<svg xmlns="http://www.w3.org/2000/svg" width="3.6in" height="4in" viewBox="0 0 256 288"><path fill="#231f20" d="M229 225.7c-59.5-136.1-60.4-92-112.2-99.3s-84.4 97.3-84.4 97.3 2.4-109.3 89.4-138.2S229 225.7 229 225.7z"/><path fill="#231f20" d="M17.7 215s23.6-38 100.8-3.4a29.2 29.2 0 0 0 23.6-1.3c24.5-12.1 73.6-25.5 96.2-1v16.4s-29.8-41.9-98.7-5.7c0 0-13.5 4.7-24.5-1.3s-68.9-23-97.2 9.7z"/><path fill="#231f20" d="M31.1 224.8s12.8 62 47 60.5 44.2-60.4 44.2-60.4-20.4 54.7-48.6 49.9-42.6-50-42.6-50zm195.8-1.8s-11.4 62.3-44.8 61.6-44.1-59.4-44.1-59.4 20.8 54.2 48.2 48.7 40.7-50.9 40.7-50.9zM88 31c-12.7 6.9-46.5 7-44.4 28.4 1.4 15.2 19.5 22.1 28.3 45.1 7.4 19.4-.9 32.8 9.9 44.5 7.5 8.1 18.7 9.1 24 9.5 20.7 1.8 37.3-11.1 41.2-14.5 10.9-9 11.2-15.7 18.8-16.8 10.9-1.5 16.8 10.9 25.7 8.6 7.2-1.9 11.4-12.2 12.5-19.4 3.7-23.3-20.7-36.9-14.5-53.8 2.9-7.7 8.7-6.6 11.6-15.8s-.8-22.5-7.3-30C183.6 4.9 161 2.8 145.4 2.7 116.4 2.4 98.2 25.6 88 31z"/><path fill="#231f20" stroke="#fff" stroke-linejoin="round" stroke-width="5.48" d="M86.9 47.3c2-23.8-15 43.6-3.8 59.9 1.3 2 15.4 21.8 36.7 18.9 15.1-2.1 23.7-14.2 25.3-16.7a62.4 62.4 0 0 1-10.2 4.5c-18.4 6.2-54.3 9.2-48-66.6z"/><path fill="#231f20" stroke="#fff" stroke-linejoin="round" stroke-width="5.48" d="M130 98.1c-28.2 18.5 53.1-23.3 51.8-40.2-1-12.8-14.6-24.8-32.1-29.4 0 0 36.8 32.7-19.7 69.6z"/><path fill="#231f20" stroke="#fff" stroke-linejoin="round" stroke-width="5.48" d="M144 56.3s-1.8-16.7-17.9-22.7-29.3 9.6-28.7 28.7 9.6 23.3 12 25.7-12-65.8 34.6-31.7z"/><path fill="#231f20" d="M50.5 252.5s33.4-20.4 36.5-30.4-36.5 30.4-36.5 30.4zm13.2 2.4s33.4-20.4 36.6-30.4-36.6 30.4-36.6 30.4zm93.4-2.4s33.4-20.4 36.6-30.4-36.6 30.4-36.6 30.4zm13.3 2.4s33.4-20.4 36.6-30.4-36.6 30.4-36.6 30.4z"/></svg>