<svg xmlns="http://www.w3.org/2000/svg" width="86.4" height="86.4" viewBox="0 0 64 64"><path fill="#231f20" d="M54.6 50.3C41.3 19.8 41.1 29.7 29.5 28.1S10.6 49.8 10.6 49.8s.6-24.4 20-30.9 24 31.4 24 31.4z"/><path fill="#231f20" d="M7.3 47.9s5.3-8.5 22.6-.8a6.6 6.6 0 0 0 5.3-.3c5.4-2.7 16.4-5.7 21.5-.2v3.7S50 40.9 34.6 49a7.3 7.3 0 0 1-5.5-.3c-2.8-1.5-15.4-5.1-21.7 2.2z"/><path fill="#231f20" d="M10.3 50.1S13.2 64 20.8 63.6s9.9-13.5 9.9-13.5-4.5 12.2-10.8 11.2-9.6-11.2-9.6-11.2zm43.8-.4s-2.5 13.9-10 13.8-9.9-13.3-9.9-13.3S38.9 62.3 45 61.1s9.1-11.4 9.1-11.4zm-31-43c-2.9 1.6-10.5 1.6-10 6.4s4.4 4.9 6.3 10.1-.2 7.3 2.3 9.9 4.1 2.1 5.3 2.2a13.2 13.2 0 0 0 9.3-3.3c2.4-2 2.5-3.5 4.2-3.8s3.7 2.5 5.7 2 2.6-2.8 2.8-4.4c.8-5.2-4.6-8.2-3.2-12 .6-1.7 1.9-1.5 2.6-3.5a7.5 7.5 0 0 0-1.7-6.8C44.4.9 39.4.4 35.9.4 29.4.3 25.3 5.5 23.1 6.7z"/><path fill="#231f20" stroke="#fff" stroke-linejoin="round" stroke-width="1.23" d="M22.8 10.4c.5-5.4-3.4 9.7-.8 13.4.3.4 3.4 4.8 8.2 4.2a8.7 8.7 0 0 0 5.6-3.7 16.9 16.9 0 0 1-2.3 1c-4.1 1.4-12.1 2-10.7-14.9z"/><path fill="#231f20" stroke="#fff" stroke-linejoin="round" stroke-width="1.23" d="M32.4 21.7c-6.3 4.2 11.9-5.2 11.6-9s-3.2-5.5-7.1-6.5c0 0 8.2 7.3-4.5 15.5z"/><path fill="#231f20" stroke="#fff" stroke-linejoin="round" stroke-width="1.23" d="M35.6 12.4a6.4 6.4 0 0 0-4-5.1C28 6 25 9.4 25.2 13.7s2.1 5.2 2.6 5.8-2.6-14.7 7.8-7.1z"/><path fill="#231f20" d="M14.7 56.3s7.4-4.6 8.1-6.8-8.1 6.8-8.1 6.8zm2.9.5s7.5-4.6 8.2-6.8-8.2 6.8-8.2 6.8zm20.9-.5s7.5-4.6 8.2-6.8-8.2 6.8-8.2 6.8zm3 .5s7.5-4.6 8.2-6.8-8.2 6.8-8.2 6.8z"/></svg>