<svg xmlns="http://www.w3.org/2000/svg" width="19.2" height="19.2" viewBox="0 0 16 16"><path fill="#231f20" d="M13.5 12.5C10.3 5 10.2 7.4 7.4 7s-4.6 5.4-4.6 5.4.1-6 4.9-7.6 5.8 7.7 5.8 7.7z"/><path fill="#231f20" d="M2 11.9s1.2-2.1 5.5-.2a1.4 1.4 0 0 0 1.3-.1c1.3-.6 4-1.4 5.2 0v.9s-1.6-2.3-5.4-.3a2 2 0 0 1-1.3-.1c-.7-.4-3.8-1.3-5.3.5z"/><path fill="#231f20" d="M2.7 12.4s.7 3.4 2.6 3.3 2.4-3.3 2.4-3.3-1.1 3-2.7 2.8-2.3-2.8-2.3-2.8zm10.7-.1s-.6 3.4-2.4 3.4-2.5-3.3-2.5-3.3 1.2 3 2.7 2.7 2.2-2.8 2.2-2.8zM5.8 1.8c-.7.4-2.5.4-2.4 1.6s1 1.2 1.5 2.4 0 1.8.6 2.5a2 2 0 0 0 1.3.5A3 3 0 0 0 9 8c.6-.5.7-.9 1.1-.9s.9.6 1.4.5a1.6 1.6 0 0 0 .7-1.1c.2-1.3-1.2-2-.8-3s.4-.3.6-.8a1.7 1.7 0 0 0-.4-1.7A3.9 3.9 0 0 0 9 .3C7.4.2 6.4 1.5 5.8 1.8z"/><path fill="#231f20" stroke="#fff" stroke-linejoin="round" stroke-width=".3" d="M5.7 2.7c.2-1.3-.8 2.4-.2 3.3a2.4 2.4 0 0 0 2.1 1 2 2 0 0 0 1.3-.9l-.5.3c-1 .3-3 .5-2.7-3.7z"/><path fill="#231f20" stroke="#fff" stroke-linejoin="round" stroke-width=".3" d="M8.1 5.5c-1.5 1 2.9-1.3 2.8-2.2s-.8-1.4-1.7-1.6 2 1.8-1.1 3.8z"/><path fill="#231f20" stroke="#fff" stroke-linejoin="round" stroke-width=".3" d="M8.9 3.2a1.5 1.5 0 0 0-1-1.2c-.9-.4-1.6.5-1.6 1.5s.5 1.3.7 1.4-.7-3.6 1.9-1.7z"/><path fill="#231f20" d="M3.8 13.9s1.8-1.1 2-1.6-2 1.6-2 1.6zm.7.2s1.8-1.1 2-1.7-2 1.7-2 1.7zm5.1-.2s1.8-1.1 2-1.6-2 1.6-2 1.6zm.7.2s1.9-1.1 2-1.7-2 1.7-2 1.7z"/></svg>