<svg xmlns="http://www.w3.org/2000/svg" width="38.4" height="38.4" viewBox="0 0 32 32"><path fill="#231f20" d="M27.1 25c-6.5-15-6.6-10.1-12.3-10.9S5.5 24.8 5.5 24.8s.2-12.1 9.8-15.2S27.1 25 27.1 25z"/><path fill="#231f20" d="M3.8 23.8s2.6-4.2 11.2-.4a3.1 3.1 0 0 0 2.6-.1c2.7-1.3 8.1-2.8 10.6-.1V25s-3.3-4.6-10.9-.6a3.7 3.7 0 0 1-2.7-.2c-1.4-.7-7.6-2.5-10.7 1.1z"/><path fill="#231f20" d="M5.3 24.9s1.4 6.8 5.2 6.7 4.9-6.7 4.9-6.7-2.3 6-5.4 5.5-4.7-5.5-4.7-5.5zm21.6-.2s-1.3 6.9-4.9 6.8-4.9-6.6-4.9-6.6 2.3 6 5.3 5.4 4.5-5.6 4.5-5.6zM11.6 3.6c-1.4.7-5.1.7-4.9 3.1s2.2 2.4 3.1 4.9-.1 3.7 1.1 4.9a3.8 3.8 0 0 0 2.7 1.1 6.4 6.4 0 0 0 4.5-1.6c1.2-1 1.2-1.7 2.1-1.8s1.8 1.2 2.8.9 1.3-1.3 1.4-2.1c.4-2.6-2.3-4.1-1.6-6s.9-.7 1.3-1.7a3.9 3.9 0 0 0-.8-3.3C22.1.7 19.6.4 17.9.4S12.7 3 11.6 3.6z"/><path fill="#231f20" stroke="#fff" stroke-linejoin="round" stroke-width=".6" d="M11.5 5.3c.2-2.6-1.7 4.8-.4 6.6a4.4 4.4 0 0 0 4 2.1 4 4 0 0 0 2.8-1.8l-1.1.5c-2.1.7-6 1-5.3-7.4z"/><path fill="#231f20" stroke="#fff" stroke-linejoin="round" stroke-width=".6" d="M16.2 10.9c-3.1 2.1 5.9-2.5 5.7-4.4s-1.6-2.7-3.5-3.2c0 0 4 3.6-2.2 7.6z"/><path fill="#231f20" stroke="#fff" stroke-linejoin="round" stroke-width=".6" d="M17.8 6.3a3.2 3.2 0 0 0-2-2.5C14 3.2 12.6 4.9 12.6 7a3.2 3.2 0 0 0 1.3 2.8c.3.3-1.3-7.2 3.9-3.5z"/><path fill="#231f20" d="M7.5 27.9s3.6-2.2 4-3.3-4 3.3-4 3.3zm1.4.3s3.7-2.2 4-3.3-4 3.3-4 3.3zm10.3-.3s3.7-2.2 4-3.3-4 3.3-4 3.3zm1.5.3s3.6-2.2 4-3.3-4 3.3-4 3.3z"/></svg>