<svg xmlns="http://www.w3.org/2000/svg" id="Layer_1" viewBox="0 0 431.8 448" width="431.8" height="448"><style>.st0{fill:#be1e2d;stroke:#fff;stroke-width:12;stroke-miterlimit:10}.st1{fill:#52230d}.st2{fill:#fff}</style><path d="M219 168.9c10.5-.6 20.9-.8 31.3-2.5.9-.2 1.9-.3 2.8-.5 9.4-39.2-10.9-57.6-33.1-57.6-35.5 0-43.1 18.1-32.7 66.1 9.8-4.1 22.3-4.9 31.7-5.5z" class="st0"/><path d="M49.5 209.5c-26.3 1.2-38.3-44-35.2-70.8.4-6.9-.5-9.1-1.8-12.5-1.2-3.4-6.6-24.9-5.3-32.8 0 0 4.8 9.4 11.2 13.5 0 0-16.8-50.3 18.7-90 0 0-9.3 27.8 7.2 48.8 0 0-4.2-37.7 42.5-50.2 0 0-21.8 22-19.1 39 0 0 15.7-30.8 43.8-29.7 0 0-12.7 12.2-12.5 20.7C111.5 12 296.3-23.9 345.4 55.7c19.6 31.9 24.2 69.8 11 102.2-12.6 31-41.2 56.9-88.2 67.5-21.4 4.8-46.5 6.5-75.7 4.1-1.1-.1-2-.1-2.9 0-14.4 1.2-6.7 22.8 1.9 21.5 7.7-1.2 97.1-77.1 151.2-50.6s78.2 95.9 49.5 150c-55.4 104-294.4 138.7-348.2-2-18.2-54.3 26.6-108.6 55.4-114 0 0 213.3-24.2 251.5-64.1 29.7-31 48.1-14.5 8.1-113.1 0 0 132.6 95.7 21.1 211.5 0 0-49.9 91.8-38.2 49.3s-36.8-52.6-71.4-12.3c-20.2 23.5-89.9 15-134.1-11.2-42-25-60.8-66 8.4-110.7 30.4-19.6 110.2-19.7 126.2-38.2s-25.2-127.5-149.6-28.9c-15.4 22.2-9.9 27.7-12.9 33.3 0 0-3.7 5-3.4 9.9.2 4.8 6 2.1 6.7 5.4s-4.9 4.7-5.5 9.1 11.8 4.8 17.1 1.5c1.3 10.1-21.3 8.6-21.4 11.5-.1 2.9 12.6 5.1 23 0 5.1-2.6 5.4 1.9 2.1 3.1-3.3 1.2-10.7 3.1-13.1 8-2.4 4.9-38.9 4.6-47.3-6.6 15.1 3.3 23.4-6.7 20.4-6.5-4.1.4-15.1 2.9-18-4.7 7.2 2.6 10-.6 10.8-4.7.8-4.1 2.7-14.6-.1-19.7-2.8-5.1-7.7-4.5-8-11.2-.4-6.7-1.2-27.9-6-31.1-4.8-3.2 1.3 16.7.2 20.6-1.1 3.9-17.3 43.3-15.7 48.2 1.6 4.8 7.1 5.8 11.2 6.7s-9.9 5.9-17.8 6.4 15 7.1 24.8 2.7c4.4-.6-7.9 10.4-19 10.9z" class="st1"/><path d="M30.8 160.9s10.1 11.5 2.8 22.1c-4.2 7.2-2.8-22.1-2.8-22.1zm10.3-64.1s19.1 19.4 0 42.4c0 0-18.5-11.9 0-42.4zm126.2-61s74.2-27 119 1.6c0 0-7.5 39.4-40.6 47.4 0 0-8.1-4.4-10.9-5.3 0 0 31.8-11.5 30.6-36.6 0 0-47.6-13.6-83.7 5.9-9.1 5.7-16.3 39.3-16.3 39.3l-12.1 6.4s11.9-42 12.1-48.1c0 0-55.4-10.4-59.9-9.8 0 0 12.5-8.6 15.2-8.9 2.3-.1 46.6 8.1 46.6 8.1z" class="st2"/><path d="M217.6 7.5s29.9 85.3 130.7 52.2l6.1 11.9S244.9 111.9 203 8.3l14.6-.8z" class="st2"/><path d="M327.1 34.7s-63.4 78.5-10 135.4c0 0 45.1-41.3 44.6-74.6 0 0-3.8-18.3-5.5-18.7-1.2-.3-19.4 64.9-38.9 79 0 0-19-63.1 22.2-111.6l-12.4-9.5z" class="st2"/><path d="M357.8 155.4c-.4 1.1-97.2-47-89.2 70 0 0-14.9 2.9-16.1 2.9-7.1 0-8.2-133.8 109.8-88.4-.1 0-3.5 12.9-4.5 15.5zm-89 152.9s12-67.8 83.6-64.6c0 0 8.6 22.5-21.5 50l5.9 4.8s46-38.3 37.5-68.2c0 0-88.2-31.6-120.7 85.5.1-.1 8.6-.5 15.2-7.5z" class="st2"/><path d="M314.6 207.2s0 77.3 92.3 90.5c0 0-2.2 11.7-2.7 13-.5 1.4-95.3-15.1-102.6-96.8l13-6.7zm-34.5 225.1s27.7-21.4 30.6-43.4c0 0-59.4 14-85.9 54.1h-22.7c-2.9 0 41-72.7 120.9-68.2 0 0 3.9 22.9-11.6 44l-31.3 13.5zM54.6 269.2s41.6-10.7 60.3 46.5l-20.8 6.4s-8.4-45.6-48.8-36l9.3-16.9zM225.3 162s38.6-7.6 74.2 27.3c0 0-16.3 25.5-32.8 37.7l-35 3.2s37.9-24.1 46.1-36.9c0 0-18.9-25.5-108.5-20.5 0 0 48.3-9.9 56-10.8zm-59.1 278.6s24.2-73.5-54.8-106.2c0 0-35.6 36 .8 89.3l10.4 3.2s-22.1-38.1-11.2-71.8c0 0 52.9 13.4 41.8 81.2l13 4.3z" class="st2"/><path d="M401.7 271s-86.6 19.3-57.7 118c0 0 24.5-4.9 44.5-28.7 0 0 13.9-26.2 15.7-34.8 0 0-32.6 40-50 43.3 0 0-24-38.8 50-86.1l-2.5-11.7z" class="st2"/><path d="M325.5 313.5h-72c-5.3-9.4-17.4-45.3-16.3-83.6-10.7.5-19.7 2.7-30.3.9-3.4-.1-8.2-.6-11.6-1.2.7 51.9-23 83.8-23 83.8s-59.7.5-74.5.5-31.3 39.1-20.2 47.3c11.1 8.2 30.4-9.9 63.7 1.3 90.7 90.1 129.6 1.2 154.6-1.5s27.3 5.6 48.6.5c20.8-19.8-19-48-19-48z" class="st0"/><path d="M207.4 169.8c4.1-.4 8-.7 11.6-.9h.9l12.8-21.9-12.7-38.7-24.6 5.2 22 35.5-10 20.8zm96.4 172.1l-20.2.3-6.3-7.7-12.4 8-24.7-14.9 4-13.4-27.9-20.3 8.6-18.5-9.7-7 9.7-28.8-1.9-8.8c-3.7-.4-6.5.6-10.9 0l3.1 15.7-10.9 31.5 7.3 4.6-9.2 17.8 18.5 18.3-55.5 15.7v13.2l-36.5 9.6 12.5 4.6 22.7-7.6-1.2 26.4 4.9 3.6 3.2-42.7 46.4-10.2-21.9 22.3 19.7 13.2-27.6 26.5 10.5 6.4 19.2-26.8 13.2 10.3-10.8 19.8 12.5-1.5 11.5-28.3 13.2 17.3 3.6-2.5-10.5-20.9-27.9-16.7 9.4-14.9 29 19.6 15.1-10.6 4.5 7.2 18.1-2.7 10.7 7.5 12 .8-17.1-15.4z" class="st2"/><path d="M212 164.3s4 89.5-111.4 85.8c0 0-3.6-18.4-.3-23.8 3.8 7.6 99.8 21.7 87.7-58 0-.2 21.7-3.6 24-4zm65 144.3s69.9-48.4 61.9 9.7l-61.9-9.7z" class="st2"/><path d="M198 228.3s-25.4 1.4-9.2 22.3c0 0 17.1-11.3 9.2-22.3z" class="st2"/><path d="M189.3 230.5s37.3.8 42.4-.3l10.8-7.2-53.6-.6.4 8.1z" class="st1"/></svg>